<?xml version="1.0" encoding="UTF-8"?>
<svg xmlns="http://www.w3.org/2000/svg" xmlns:xlink="http://www.w3.org/1999/xlink" width="16pt" height="16pt" viewBox="0 0 16 16" version="1.1">
<g id="surface1">
<path style=" stroke:none;fill-rule:nonzero;fill:rgb(0%,0%,0%);fill-opacity:1;" d="M 16.191406 8.179688 C 16.191406 12.601562 12.976562 15.75 8.230469 15.75 C 3.675781 15.75 0 12.289062 0 8 C 0 3.710938 3.675781 0.25 8.230469 0.25 C 10.441406 0.25 12.308594 1.015625 13.746094 2.277344 L 11.507812 4.304688 C 8.574219 1.644531 3.128906 3.644531 3.128906 8 C 3.128906 10.703125 5.421875 12.894531 8.230469 12.894531 C 11.484375 12.894531 12.707031 10.695312 12.898438 9.554688 L 8.230469 9.554688 L 8.230469 6.886719 L 16.058594 6.886719 C 16.136719 7.285156 16.191406 7.664062 16.191406 8.179688 Z M 16.191406 8.179688 "/>
</g>
</svg>
